<svg xmlns="http://www.w3.org/2000/svg" viewBox="0 0 1600 900"><defs><linearGradient id="sky" x1="0" y1="0" x2="0" y2="1"><stop stop-color="#263443"/><stop offset=".52" stop-color="#101823"/><stop offset="1" stop-color="#05080d"/></linearGradient><radialGradient id="sun" cx="55%" cy="28%" r="48%"><stop stop-color="#f7c86a" stop-opacity=".45"/><stop offset=".45" stop-color="#8a4526" stop-opacity=".12"/><stop offset="1" stop-color="#000" stop-opacity="0"/></radialGradient></defs><rect width="1600" height="900" fill="url(#sky)"/><rect width="1600" height="900" fill="url(#sun)"/><g opacity=".45" fill="#111923"><ellipse cx="220" cy="110" rx="220" ry="58"/><ellipse cx="650" cy="95" rx="260" ry="70"/><ellipse cx="1180" cy="130" rx="300" ry="85"/></g><path d="M0 575 C230 525 360 625 610 570 S1080 520 1600 575 L1600 900 L0 900Z" fill="#092131"/><path d="M0 620 C220 565 390 670 640 612 S1080 570 1600 630 L1600 900 L0 900Z" fill="#0b3546" opacity=".85"/><g fill="#0e1419" stroke="#66717b" stroke-width="4"><path d="M920 520 l270 0 -38 58 -186 28 -144 -38z"/><rect x="995" y="445" width="70" height="75"/><rect x="1068" y="472" width="88" height="45"/><path d="M1030 445 l30 -85 l28 85z"/><path d="M850 492 l120 0" stroke-width="10"/><path d="M1160 480 l150 -34" stroke-width="10"/></g><g fill="#101610" stroke="#697a45" stroke-width="4"><rect x="190" y="620" width="160" height="70" rx="18"/><rect x="220" y="590" width="90" height="50" rx="12"/><path d="M285 605 l150 -20" stroke-width="13"/><circle cx="225" cy="698" r="25"/><circle cx="315" cy="698" r="25"/></g><g fill="#121a21" stroke="#65717b" stroke-width="3"><path d="M115 530 l210 0 -35 45 -145 22 -90 -35z"/><rect x="170" y="470" width="46" height="60"/><path d="M193 470 l15 -68 l15 68z"/></g><g fill="#1c242d" opacity=".85"><path d="M1190 250 l90 20 l-94 18z"/><path d="M1290 195 l75 16 l-78 16z"/><path d="M1000 120 l80 20 l-84 20z"/></g><g fill="#ffb347" opacity=".8"><circle cx="1240" cy="566" r="11"/><circle cx="1280" cy="548" r="8"/><circle cx="335" cy="610" r="7"/></g></svg>
