<svg xmlns="http://www.w3.org/2000/svg" viewBox="0 0 1000 500" preserveAspectRatio="none"><defs><linearGradient id="sea" x1="0" x2="1"><stop stop-color="#0b6685"/><stop offset="1" stop-color="#073c54"/></linearGradient><linearGradient id="land" x1="0" x2="1"><stop stop-color="#7a8140"/><stop offset="1" stop-color="#30401f"/></linearGradient><filter id="blur"><feGaussianBlur stdDeviation="8"/></filter></defs><rect width="600" height="500" fill="url(#sea)"/><rect x="600" width="400" height="500" fill="url(#land)"/><g opacity=".28" stroke="#e9fbff" stroke-width="2"><path d="M20 80 C120 45 190 110 310 75 S510 55 590 90" fill="none"/><path d="M60 170 C145 130 240 210 350 160 S500 140 590 185" fill="none"/><path d="M40 330 C145 300 220 355 335 315 S500 310 590 345" fill="none"/><path d="M80 440 C180 400 240 470 370 425 S500 410 590 445" fill="none"/></g><path d="M600 0 C565 58 635 92 596 146 C552 207 626 250 590 305 C560 350 615 390 585 500 L1000 500 L1000 0Z" fill="url(#land)"/><path d="M600 0 C565 58 635 92 596 146 C552 207 626 250 590 305 C560 350 615 390 585 500" fill="none" stroke="#e1cf85" stroke-width="18" opacity=".55"/><path d="M600 0 C565 58 635 92 596 146 C552 207 626 250 590 305 C560 350 615 390 585 500" fill="none" stroke="#f6e8a7" stroke-width="4" opacity=".45"/><g fill="#172611" opacity=".65"><circle cx="730" cy="58" r="25"/><circle cx="850" cy="90" r="18"/><circle cx="910" cy="160" r="28"/><circle cx="790" cy="250" r="26"/><circle cx="690" cy="350" r="21"/><circle cx="920" cy="380" r="30"/><circle cx="740" cy="440" r="26"/></g><g stroke="#222b16" stroke-width="10" opacity=".7" fill="none"><path d="M640 95 C730 120 700 205 785 225 S860 300 800 410"/><path d="M995 230 C900 225 880 180 785 190 S700 210 620 185"/></g><g fill="#2d3423" stroke="#0d130b" stroke-width="3" opacity=".9"><rect x="780" y="95" width="96" height="70"/><rect x="805" y="55" width="45" height="45"/><path d="M780 95 l48 -38 l48 38z" fill="#4a4f38"/><rect x="860" y="310" width="55" height="45"/><rect x="650" y="210" width="60" height="42"/></g><g fill="#243017" opacity=".7"><path d="M650 60 l20 -45 l20 45z"/><path d="M930 80 l18 -38 l18 38z"/><path d="M720 300 l20 -45 l20 45z"/><path d="M840 420 l20 -45 l20 45z"/><path d="M960 250 l20 -45 l20 45z"/></g><g fill="#0b526e" opacity=".45" filter="url(#blur)"><circle cx="110" cy="120" r="35"/><circle cx="360" cy="80" r="26"/><circle cx="210" cy="360" r="32"/><circle cx="500" cy="410" r="30"/></g></svg>
