<svg xmlns="http://www.w3.org/2000/svg" viewBox="0 0 1600 900"><defs><linearGradient id="g" x1="0" y1="0" x2="0" y2="1"><stop stop-color="#283140"/><stop offset=".55" stop-color="#121620"/><stop offset="1" stop-color="#050608"/></linearGradient><radialGradient id="gold" cx="50%" cy="40%" r="42%"><stop stop-color="#ffd36c" stop-opacity=".34"/><stop offset=".45" stop-color="#000" stop-opacity="0"/></radialGradient></defs><rect width="1600" height="900" fill="url(#g)"/><rect width="1600" height="900" fill="url(#gold)"/><path d="M0 620 C250 560 400 690 650 620 S1080 575 1600 630 L1600 900 L0 900Z" fill="#0a2634"/><g fill="#121710" stroke="#566638" stroke-width="5"><rect x="185" y="650" width="230" height="90" rx="18"/><rect x="235" y="595" width="120" height="65" rx="12"/><path d="M315 620 l230 -38" stroke-width="16"/><circle cx="230" cy="755" r="30"/><circle cx="360" cy="755" r="30"/></g><g fill="#121a21" stroke="#65717b" stroke-width="4"><path d="M1070 545 l300 0 -45 65 -210 28 -145 -42z"/><rect x="1170" y="460" width="76" height="86"/><path d="M1208 460 l25 -98 l24 98z"/></g><g fill="#f5c15b" opacity=".9"><circle cx="1180" cy="590" r="9"/><circle cx="1250" cy="575" r="12"/><circle cx="410" cy="620" r="8"/></g></svg>
