<svg xmlns="http://www.w3.org/2000/svg" viewBox="0 0 1200 800"><defs><linearGradient id="s" x1="0" y1="0" x2="1" y2="1"><stop stop-color="#14314d"/><stop offset=".55" stop-color="#10151c"/><stop offset="1" stop-color="#2d2316"/></linearGradient></defs><rect width="1200" height="800" fill="url(#s)"/><path d="M0 540 C240 480 340 610 540 530 C760 440 960 500 1200 420 L1200 800 L0 800Z" fill="#0b2c3d"/><path d="M650 260 L880 240 L980 360 L930 540 L640 540 L570 360Z" fill="#222b28" stroke="#80745b" stroke-width="8"/><path d="M250 540 l360 -20 l-65 70 l-250 25z" fill="#20252a" stroke="#8da0ad" stroke-width="7"/><path d="M300 475 l28 65 M410 455 l20 70 M520 438 l12 80" stroke="#a9b7c0" stroke-width="8"/><path d="M850 590 l170 10 l-55 35 l-150 -10z" fill="#2c3722" stroke="#94a060" stroke-width="6"/><circle cx="870" cy="640" r="28" fill="#111"/><circle cx="985" cy="640" r="28" fill="#111"/><circle cx="1015" cy="220" r="90" fill="#f39827" opacity=".25"/><g fill="#e87b24" opacity=".8"><path d="M1000 450 l45 -80 l30 95z"/><path d="M1060 500 l70 -90 l20 120z"/></g><g fill="#111820"><path d="M75 650 h210 l-40 45 h-150z"/><path d="M120 600 h40 v50 h-40z"/></g></svg>
